name analog
datacolumns 19
datarows 18
range 0.178 0.1865
endheader
time	ground_force_vx	ground_force_vy	ground_force_vz	ground_force_px	ground_force_py	ground_force_pz	l_ground_force_vx	l_ground_force_vy	l_ground_force_vz	l_ground_force_px	l_ground_force_py	l_ground_force_pz	ground_torque_x	ground_torque_y	ground_torque_z	l_ground_torque_x	l_ground_torque_y	l_ground_torque_z
0.178	-0.0	-0.0	-0.0	4.790746688842773	33.004844665527344	-401.14404296875	-3.203340768814087	-29.888643264770508	-325.75848388671875	-0.0	-0.0	-0.0	-0.0	-0.0	-0.0	93186.1171875	-16673.474609375	-1166.7674560546875
0.1785	-0.0	-0.0	-0.0	4.648139953613281	33.16569900512695	-399.7996826171875	-2.7404351234436035	-29.42424964904785	-324.6072082519531	-0.0	-0.0	-0.0	-0.0	-0.0	-0.0	92839.3515625	-16663.111328125	-1195.984375
0.179	-0.0	-0.0	-0.0	4.415985584259033	33.11642074584961	-399.1462707519531	-2.9764950275421143	-29.149995803833008	-324.1536865234375	-0.0	-0.0	-0.0	-0.0	-0.0	-0.0	92992.421875	-16699.638671875	-1283.78515625
0.1795	-0.0	-0.0	-0.0	4.076855659484863	32.68001937866211	-399.14642333984375	-3.1670632362365723	-29.132951736450195	-322.2669677734375	-0.0	-0.0	-0.0	-0.0	-0.0	-0.0	92293.4921875	-16375.50390625	-1061.1981201171875
0.18	-0.0	-0.0	-0.0	3.6087448596954346	33.107669830322266	-398.5998229980469	-2.8121652603149414	-28.859027862548828	-319.9628295898437	-0.0	-0.0	-0.0	-0.0	-0.0	-0.0	91692.4765625	-16586.427734375	-1127.6756591796875
0.1805	-0.0	-0.0	-0.0	3.5196449756622314	32.65699768066406	-400.2392578125	-2.244422674179077	-28.444137573242188	-320.2589416503906	-0.0	-0.0	-0.0	-0.0	-0.0	-0.0	91508.0078125	-16685.7578125	-1085.6390380859375
0.181	-0.0	-0.0	-0.0	3.7603585720062256	32.745967864990234	-398.386962890625	-2.2177696228027344	-28.549694061279297	-315.9486694335937	-0.0	-0.0	-0.0	-0.0	-0.0	-0.0	90768.28125	-16464.478515625	-1079.5831298828125
0.1815	-0.0	-0.0	-0.0	3.641881942749024	31.755319595336918	-396.9742431640625	-2.1558666229248047	-28.241342544555664	-315.3894348144531	-0.0	-0.0	-0.0	-0.0	-0.0	-0.0	90268.859375	-16187.9677734375	-809.6356201171875
0.182	-0.0	-0.0	-0.0	3.595583200454712	31.941675186157227	-396.0760192871094	-1.3575198650360107	-28.276309967041016	-313.8873291015625	-0.0	-0.0	-0.0	-0.0	-0.0	-0.0	89513.6015625	-16292.3681640625	-656.2659912109375
0.1825	-0.0	-0.0	-0.0	4.660056114196777	32.07333755493164	-395.6451110839844	-1.153240203857422	-27.46804428100586	-310.7979431152344	-0.0	-0.0	-0.0	-0.0	-0.0	-0.0	89116.546875	-16193.5673828125	-500.4355773925781
0.183	-0.0	-0.0	-0.0	4.6252875328063965	31.89503669738769	-395.1830139160156	-0.2526260316371918	-27.22997283935547	-307.20025634765625	-0.0	-0.0	-0.0	-0.0	-0.0	-0.0	87992.8359375	-16058.505859375	-458.523681640625
0.1835	-0.0	-0.0	-0.0	4.968419551849365	31.778535842895508	-393.1976623535156	0.4706173539161682	-26.92464256286621	-304.21759033203125	-0.0	-0.0	-0.0	-0.0	-0.0	-0.0	86927.7265625	-15952.240234375	-252.8662109375
0.184	-0.0	-0.0	-0.0	5.448694705963135	31.010517120361328	-388.93255615234375	0.9622483253479004	-26.360395431518555	-301.2110595703125	-0.0	-0.0	-0.0	-0.0	-0.0	-0.0	86239.8203125	-15756.08203125	-85.92772674560547
0.1845	-0.0	-0.0	-0.0	6.320183753967285	31.07238006591797	-388.3889465332031	1.5216922760009766	-25.959548950195312	-297.7727966308594	-0.0	-0.0	-0.0	-0.0	-0.0	-0.0	85189.3125	-15376.5029296875	-30.62482643127441
0.185	-0.0	-0.0	-0.0	7.205759525299072	30.496368408203125	-384.259765625	1.699135184288025	-25.59971809387207	-293.09918212890625	-0.0	-0.0	-0.0	-0.0	-0.0	-0.0	84079.4375	-15444.1748046875	88.25606536865234
0.1855	-0.0	-0.0	-0.0	8.330497741699219	30.33195686340332	-381.7626647949219	2.1494250297546387	-24.43122100830078	-290.2789306640625	-0.0	-0.0	-0.0	-0.0	-0.0	-0.0	82753.5078125	-15030.611328125	232.6354522705078
0.186	-0.0	-0.0	-0.0	8.187463760375977	29.824951171875	-379.8879699707031	2.456486940383911	-24.078088760375977	-283.3523254394531	-0.0	-0.0	-0.0	-0.0	-0.0	-0.0	81322.453125	-14760.435546875	372.0963745117188
0.1865	-0.0	-0.0	-0.0	9.353216171264648	29.727930068969727	-379.856689453125	2.728881359100342	-23.432592391967773	-277.604736328125	-0.0	-0.0	-0.0	-0.0	-0.0	-0.0	79987.5546875	-14527.322265625	297.22149658203125
